<?xml version="1.0" encoding="utf-8"?>
<!-- Generator: Adobe Illustrator 21.0.2, SVG Export Plug-In . SVG Version: 6.00 Build 0)  -->
<!DOCTYPE svg PUBLIC "-//W3C//DTD SVG 1.1//EN" "http://www.w3.org/Graphics/SVG/1.1/DTD/svg11.dtd">
<svg version="1.1" id="Layer_1" xmlns="http://www.w3.org/2000/svg" xmlns:xlink="http://www.w3.org/1999/xlink" x="0px" y="0px"
	 viewBox="0 0 41.8 40.5" style="enable-background:new 0 0 41.8 40.5;" xml:space="preserve">
<style type="text/css">
	.st0{fill:#ABABAB;}
</style>
<g id="Page-1">
	<g id="_x30_01-Index" transform="translate(-1075.000000, -101.000000)">
		<g id="Group-7" transform="translate(1076.000000, 102.000000)">
			<g id="search">
				<path class="st0" d="M38.4,39.1l-11-9.5c-3.2,2.3-7.1,3.5-11.2,3.5c-9.7,0-16.7-7-16.7-16.7c0-9.7,7-16.7,16.7-16.7
					c10.1,0,18.3,7.5,18.3,16.7c0,4.4-1.8,8.4-5.1,11.6l10.9,9.5L38.4,39.1z M27.5,28.3l10.9,9.5l0.4-0.4l-10.9-9.4l0.4-0.4
					c3.3-3,5.2-7,5.2-11.2c0-8.7-7.7-15.7-17.3-15.7C7.1,0.6,0.5,7.2,0.5,16.4s6.6,15.7,15.7,15.7c4,0,7.8-1.3,10.9-3.5L27.5,28.3z"
					/>
			</g>
		</g>
	</g>
</g>
</svg>
